# xmcd
#
# Track frame offsets:
#	150
#	12740
#	24802
#	35077
#	52352
#	62965
#	76277
#	86927
#	99965
#	108315
#	129427
#	141890
#	152702
#	163802
#	173140
#	186377
#	198402
#	211652
#	226377
#	241302
#
# Disc length: 3393
#
# Revision: 2
# Processed by: cddbd v1.5.1PL0 Copyright (c) Steve Scherf et al.
# Submitted via: audiograbber 1.81.02
# Normalized: r1:TDELIM( - )
#
DISCID=180d3f14
DTITLE=Various Artist - Unforgettable Country [CD2]
DYEAR=1998
DGENRE=Country
TTITLE0=Roy Orbison - Crying
TTITLE1=Crystal Gayle - Don't It Make My Brown Eyes Blue
TTITLE2=Carl Perkins - Blue Suede Shoes
TTITLE3=Ray Price - For The Good Times
TTITLE4=Jerry Reed - When You're Hot, You're Hot
TTITLE5=Charlie Rich - Behind Closed Doors
TTITLE6=The Statler Brothers - Flowers On The Wall
TTITLE7=Tanya Tucker - Delta Dawn
TTITLE8=Roger Miller - Dang Me
TTITLE9=Marty Robbins - El Paso
TTITLE10=Johnny Cash - Folsom Prison Blues
TTITLE11=Porter Wagoner - The Green, Green Grass Of Home
TTITLE12=Willie Nelson - On The Road Again
TTITLE13=Charley Pride - Kiss An Angel Good Morning
TTITLE14=Dolly Parton - I Will Always Love You
TTITLE15=Charlie Rich - The Most Beautiful Girl
TTITLE16=Johnny Paycheck - She's All I Got
TTITLE17=Jeannie C. Riley - Harper Valley PTA
TTITLE18=George Jones - He Stopped Loving Her Today
TTITLE19=Roy Orbison - Oh Pretty Woman
EXTD=
EXTT0=
EXTT1=
EXTT2=
EXTT3=
EXTT4=
EXTT5=
EXTT6=
EXTT7=
EXTT8=
EXTT9=
EXTT10=
EXTT11=
EXTT12=
EXTT13=
EXTT14=
EXTT15=
EXTT16=
EXTT17=
EXTT18=
EXTT19=
PLAYORDER=
